<svg width="109" height="43" viewBox="0 0 109 43" fill="none" xmlns="http://www.w3.org/2000/svg">
<path d="M108.403 28.5642C107.665 28.9188 106.956 28.0252 106.176 27.7416C105.396 27.4579 104.644 27.2877 104.36 27.2877L27.5539 27.2877C28.3766 30.011 28.9156 33.557 31.7382 34.9328L33.3693 32.6067L34.3764 33.0606L28.5468 41.4149C28.1071 41.6135 27.3837 40.9185 27.0575 40.6348C23.5682 37.642 23.0434 31.8265 21.4406 27.7415L10.8026 27.8125L8.97283 32.8336C11.3132 32.9613 13.3557 34.0676 15.1429 35.5002L16.8591 33.5428L17.5967 34.1669L11.5969 41.4717C10.0366 40.2377 8.60405 38.337 6.47644 38.0817C3.63964 37.7413 1.35601 39.2306 0.746098 42.039L0.0227135 41.6702C0.533339 38.2661 2.434 34.252 5.96582 33.1456C6.6041 32.9471 7.28493 32.9045 7.90903 32.6776L9.54019 27.5713C-0.955981 25.5998 -2.81408 10.0399 4.07935 3.30247C8.22108 -0.754157 15.9797 -1.61938 19.2988 3.82728L20.7456 7.13216C20.9583 4.86272 21.8803 2.3947 23.6533 0.891192C24.3625 0.281279 25.0008 -0.271897 25.2845 1.01885C21.6108 3.1039 22.0647 7.1889 22.8874 10.7349C23.8802 15.0468 25.3554 19.2737 26.4334 23.5714L103.084 23.5715C104.474 23.4012 105.992 23.3871 106.772 22.0254C108.091 22.8623 105.992 24.5927 105.14 25.075C106.431 25.9969 107.765 26.8905 108.403 28.4082L108.403 28.55L108.403 28.5642ZM15.072 13.5292C15.1287 12.5505 15.9088 11.5008 16.0365 10.5789C16.1499 9.77039 14.8167 6.76338 14.3344 5.96907C11.8522 1.86989 6.44808 2.38051 3.58291 5.79886C-1.651 12.0398 1.21417 25.4154 10.1076 26.7203L11.3557 23.2168C11.2139 22.0112 10.0508 19.7276 8.63242 19.8269C7.21402 19.9261 7.21402 20.607 7.44096 19.7418C7.6679 18.8765 8.41966 18.5787 8.78844 18.3801C10.2919 17.5716 11.7813 17.9688 12.8734 19.2028C14.533 17.4014 11.9657 14.9901 10.1501 14.7064C8.33455 14.4227 7.44096 15.1461 6.63247 16.2383C5.69633 16.0539 6.58992 14.905 6.93034 14.4086C8.51895 12.0824 11.3841 10.5505 13.9231 12.4937C14.3344 12.8058 14.4904 13.1462 14.7741 13.4582C15.0578 13.7703 14.8734 13.5859 15.072 13.5433L15.072 13.5292ZM20.0364 23.5998L16.7031 11.9689L12.5188 23.5998L20.0364 23.5998Z" fill="white"/>
<path d="M73.5101 9.27396L76.2902 6.57899C77.0136 7.1889 77.5809 7.88392 78.6306 7.92647C78.2192 8.50802 77.9923 8.73496 77.9214 9.48672C77.4533 14.054 79.8078 20.451 73.5243 21.7559L73.3825 21.3304C74.7016 21.0041 75.4817 19.6992 75.6377 18.4085C75.964 15.5858 75.425 12.2242 75.6377 9.34488L74.886 8.57894L73.5243 10.0683L73.5243 15.7419L74.3754 16.5929L72.6023 18.1957L70.7442 16.8057L70.6875 16.6071L71.2407 15.6C70.9854 12.0824 71.5669 8.12505 71.2407 4.66415C70.9145 1.20325 70.9854 3.41595 70.3755 3.10391L70.6166 2.76349C71.2691 2.79186 71.7371 3.30248 72.1485 3.74219C72.7726 3.00462 73.3825 1.99755 74.4888 2.04011C74.4321 2.46563 74.0349 2.60747 73.8505 3.03299C73.6662 3.45851 73.4959 4.13934 73.4959 4.23863L73.4959 9.27396L73.5101 9.27396Z" fill="white"/>
<path d="M50.9575 16.366L49.2555 17.0752C49.2129 16.0114 50.8724 15.9404 50.9717 15.1745C51.071 14.4086 51.0994 10.3803 50.9292 9.38743C50.759 8.39454 50.4753 8.47965 49.7661 8.57894C49.2696 8.53639 51.0001 6.8343 51.1703 6.72083C52.3192 6.04 53.1419 8.33781 53.2979 9.1463C54.0497 8.63567 55.0851 7.04706 55.7801 6.6641C56.4751 6.28113 55.9219 6.56481 56.0638 6.59318C56.3191 7.34493 57.4113 7.92647 58.1914 7.86974C57.9219 8.50802 57.5673 8.57894 57.4822 9.35906C57.2411 11.4583 57.6524 13.9972 57.4822 16.139C56.39 16.6496 55.4113 17.3447 54.5745 18.2241L53.227 17.0893L53.227 19.7134C53.227 19.9403 53.6951 20.8481 54.078 20.7772L53.9362 21.1318C53.5107 21.4155 52.5745 20.5219 52.305 20.2098C51.7093 20.919 51.1561 21.7275 50.2483 22.0538C50.1349 21.9119 50.9575 20.1956 50.9575 19.7134L50.9575 16.3801L50.9575 16.366ZM55.2127 16.2241L55.2127 9.20303C55.2127 9.11793 54.6454 8.67823 54.4468 8.73496L53.2553 9.9406L53.2128 15.288L55.2127 16.2241Z" fill="white"/>
<path d="M91.3962 7.85555C92.3181 7.67116 93.2259 7.27401 93.8926 6.59318C94.7152 7.04707 96.4031 7.94066 97.3109 7.60024C98.2187 7.25983 98.0769 6.91941 98.3464 6.77757C98.6158 6.63573 98.7719 6.83431 98.7719 6.91941C98.7719 7.00452 98.091 7.74208 97.935 8.06832C97.396 9.24559 97.2258 14.6497 97.7081 15.7844C98.1903 16.9191 98.8144 15.3305 99.1974 16.2809C98.3889 16.8199 97.623 17.6993 96.7436 18.0397C95.8783 17.6425 95.5663 16.8624 95.1549 16.0823L92.999 18.0397C89.6657 16.8624 90.4884 13.0469 93.0699 11.4725C92.2614 10.3945 91.5948 9.21722 91.3962 7.85555ZM95.2117 9.4158L91.9494 8.352C92.3323 10.0966 93.4529 11.6143 95.2117 12.1108L95.2117 9.4158ZM95.2117 12.5363L93.3819 11.8271C92.9139 12.7207 92.928 16.1674 94.077 16.4511C95.7507 15.671 95.1124 14.054 95.2117 12.5363Z" fill="white"/>
<path d="M37.199 2.0401C37.1423 2.46562 36.7451 2.60746 36.5608 3.03298C36.3764 3.4585 36.3196 4.04004 36.2062 4.5223L36.2061 15.6993C36.504 15.7986 37.0856 16.295 37.2983 16.3376C37.7238 16.4369 37.9508 15.6426 38.1635 16.4369L36.0076 18.0397L33.2133 16.7064C33.114 16.366 34.0644 15.8695 33.9225 15.288C33.7949 11.4867 34.1495 7.60023 33.7381 3.82728C33.7381 3.48687 32.9864 3.13227 33.0715 2.93369C33.3552 2.26704 34.6459 3.41595 34.8445 3.71381C35.4686 2.97624 36.0785 1.96918 37.1848 2.01173L37.199 2.0401Z" fill="white"/>
<path d="M56.4893 36.791L56.4893 37.642C56.2623 37.6136 56.2907 37.3158 56.0638 37.1456C55.0709 36.3938 52.3759 37.3441 54.078 37.9966C54.7021 38.2377 57.8084 38.2519 56.5744 39.7838C55.7801 40.7767 54.078 40.11 53.0851 40.1951L52.9433 39.0604C53.1986 39.1171 53.1419 39.4717 53.3688 39.6987C54.2057 40.493 57.1559 40.0249 56.1347 39.0604C55.1134 38.0959 53 38.9611 53.0851 37.5853C53.1702 36.3087 55.6524 36.7059 56.4893 36.791Z" fill="white"/>
<path d="M49.6101 30.9755C50.4469 31.1032 51.3121 31.9968 50.5178 32.7343C49.7944 33.4152 48.0073 32.862 47.7519 33.2308C47.6243 33.5286 47.6527 34.0393 47.8371 34.2946C48.0214 34.5499 48.4753 34.3513 48.5321 34.6634L46.4045 34.6634L46.986 34.4648C47.1562 34.3513 47.1988 31.6422 47.0995 31.3585C47.0002 31.0748 46.5463 31.2734 46.5463 30.9897C47.4966 31.089 48.6881 30.8479 49.5959 30.9897L49.6101 30.9755ZM49.9363 31.4294C49.837 31.3301 49.2129 31.1457 49.0427 31.1315C47.4115 30.933 47.7094 31.6422 47.7094 32.9613C48.3619 32.9187 49.9788 33.2166 50.1207 32.3088C50.2625 31.401 50.1065 31.5854 49.9363 31.4294Z" fill="white"/>
<path d="M54.5745 31.6847C55.5532 31.8833 55.6808 33.018 54.7163 33.3868L54.6596 33.5996L55.9361 34.6775C54.3759 35.1031 54.5461 33.0889 53.0993 33.401C53.1277 33.6705 53.0142 34.2095 53.1561 34.408C53.2979 34.6066 53.6951 34.408 53.6667 34.6775L51.9646 34.6775C51.9221 34.4222 52.532 34.5499 52.532 34.3229L52.532 32.0535L51.9646 31.6989C52.7447 31.7982 53.8653 31.5571 54.5886 31.6989L54.5745 31.6847ZM53.0851 33.245C55.3546 33.6705 55.383 31.5287 53.2128 31.8833L53.0851 33.245Z" fill="white"/>
<path d="M74.4321 31.6847C75.4108 31.8833 75.5384 33.018 74.5739 33.3868L74.5172 33.5996L75.7938 34.6775C74.2335 35.1031 74.4037 33.0889 72.9569 33.401C72.9853 33.6705 72.8718 34.2095 73.0137 34.408C73.1555 34.6066 73.5527 34.408 73.5243 34.6775L71.8222 34.6775C71.7797 34.4222 72.3896 34.5499 72.3896 34.3229L72.3896 32.0535L71.8222 31.6989C72.6023 31.7982 73.7229 31.5571 74.4463 31.6989L74.4321 31.6847ZM72.9428 33.245C75.2122 33.6705 75.2406 31.5287 73.0704 31.8833L72.9428 33.245Z" fill="white"/>
<path d="M87.2686 39.9824C87.3537 40.2519 87.8502 40.0675 87.836 40.337L86.7013 40.337C87.0984 40.0533 87.0701 37.8264 86.9282 37.6278C86.7864 37.4292 86.3892 37.6278 86.4176 37.3583C87.8644 37.0888 88.7579 38.6633 89.7508 39.4859C90.0771 39.5427 89.9494 39.3441 89.9636 39.1313C89.992 38.8335 90.0203 37.954 89.9494 37.7271C89.8359 37.3867 89.3962 37.642 89.3962 37.3583L90.8146 37.3583C90.7579 37.6136 90.2473 37.4151 90.2473 37.8548L90.2473 40.4788L87.2686 37.9257L87.2686 39.9824Z" fill="white"/>
<path d="M58.4467 31.7131C61.4821 31.1883 62.1771 34.252 59.5105 34.6208C56.8439 34.9896 56.078 32.1244 58.4467 31.7131ZM58.7304 31.8549C56.8155 32.167 57.4822 35.0889 59.5956 34.4222C61.1558 33.9258 60.6168 31.5429 58.7304 31.8549Z" fill="white"/>
<path d="M59.5814 37.3867C62.6168 36.8619 63.3118 39.9256 60.6452 40.2944C57.9786 40.6632 57.2127 37.798 59.5814 37.3867ZM59.8651 37.5285C57.9502 37.8406 58.6169 40.7625 60.7303 40.0958C62.2906 39.5994 61.7516 37.2165 59.8651 37.5285Z" fill="white"/>
<path d="M82.5595 37.3867C85.5949 36.8619 86.2899 39.9256 83.6233 40.2944C80.9567 40.6632 80.1908 37.798 82.5595 37.3867ZM82.8432 37.5285C80.9284 37.8406 81.595 40.7625 83.7084 40.0958C85.2687 39.5994 84.7297 37.2165 82.8432 37.5285Z" fill="white"/>
<path d="M47.2697 37.3583C46.9576 37.8548 47.6101 38.1526 47.9222 38.4788L48.8299 37.7129L48.5463 37.3583L49.8228 37.3583C49.7519 37.5994 49.3831 37.5427 49.1136 37.7129C48.8441 37.8831 48.4612 38.4221 48.1207 38.7058L49.1278 39.8263L49.9647 40.337L48.4044 40.337L48.6881 40.1242L47.7661 39.0604C47.6668 39.259 46.5605 40.0107 46.7023 40.1809C46.8442 40.3511 47.0427 40.0675 46.986 40.3228L45.5676 40.3228C45.7095 40.0816 46.0782 40.1667 46.4187 39.9682C46.7591 39.7696 47.1846 39.1313 47.5534 38.8334L45.8513 37.3441L47.2697 37.3441L47.2697 37.3583Z" fill="white"/>
<path d="M39.894 36.6491L40.0358 37.5002C39.7663 37.4576 39.8656 37.0746 39.511 36.9612C39.1564 36.8477 38.5891 36.9895 38.1919 36.9328L38.1919 39.9824C38.1919 40.2093 38.9153 40.11 38.6883 40.337L37.0572 40.337C37.0146 40.0816 37.6245 40.2093 37.6245 39.9824L37.6245 36.9328L36.1494 36.9328C36.1494 36.947 35.7806 37.5002 35.7806 37.5002L35.7806 36.6491L39.894 36.6491Z" fill="white"/>
<path d="M45.0002 40.1951C45.0428 40.4221 44.8158 40.3228 44.6456 40.337C44.2485 40.3653 43.8371 40.3228 43.44 40.3369L43.7379 40.11L43.5676 39.5001C42.9719 39.5426 41.5819 39.2164 41.3407 39.8547C41.0996 40.493 41.6102 40.0675 41.6102 40.3228L40.3337 40.2518C40.972 40.3511 42.4897 37.642 42.3194 37.486L41.8939 37.3441C42.2485 37.3583 42.6457 37.2306 42.9577 37.486C43.4116 37.8689 43.9932 39.5568 44.4329 39.9823C44.8726 40.4079 44.7875 40.1951 45.0144 40.1809L45.0002 40.1951ZM43.2981 39.3299C43.3549 39.2731 42.5748 37.8264 42.4471 37.9115L41.7379 39.3299L43.2981 39.3299Z" fill="white"/>
<path d="M65.0706 31.6847C65.7798 31.784 66.2337 32.3088 65.8649 33.0038C65.2125 33.557 64.3614 33.3584 63.5813 33.3868C63.6097 33.6563 63.4962 34.1953 63.638 34.3939C63.7799 34.5924 64.177 34.3939 64.1487 34.6634L62.4466 34.6634C62.404 34.408 63.0139 34.5357 63.0139 34.3088L63.0139 32.0393C63.0139 31.9117 62.5033 31.8833 62.5884 31.6847C63.3685 31.7698 64.3189 31.5712 65.0706 31.6847ZM63.5813 33.2449C64.5033 33.2875 65.638 33.3726 65.2125 32.1102C65.0139 31.7698 64.0636 31.7556 63.709 31.8975L63.5813 33.2591L63.5813 33.2449Z" fill="white"/>
<path d="M70.3896 31.6847L70.2478 32.3939C70.0208 32.3939 70.0918 32.1244 69.879 31.9826C69.567 31.7698 68.3188 31.7414 68.2478 32.0677L68.2478 33.1031L69.6662 32.9613L69.6662 33.5286C69.2265 33.2166 68.7727 33.2024 68.2478 33.245L68.3188 34.2378C68.9287 34.7768 69.8365 34.4364 70.3754 33.9542L70.2336 34.6634L67.1131 34.6634C67.1131 34.3797 67.5528 34.6208 67.6663 34.2946C67.7798 33.9683 67.7089 32.0819 67.6237 31.9542C67.4819 31.7698 67.0848 31.9542 67.1131 31.6847L70.3754 31.6847L70.3896 31.6847Z" fill="white"/>
<path d="M69.5386 37.3583C69.5386 37.642 69.0989 37.4009 68.9854 37.7271C68.872 38.0533 68.9429 38.9753 68.9854 39.2448C69.2408 40.3653 71.2265 40.3653 71.4818 39.2448C71.7371 38.1243 71.5669 37.9541 71.4818 37.7271C71.3684 37.3867 70.9287 37.642 70.9287 37.3583L72.3471 37.3583C72.3471 37.642 71.9074 37.4009 71.7939 37.7271C71.6804 38.0533 71.8222 38.7058 71.7655 39.1171C71.5953 40.3795 69.9358 40.6065 68.9854 40.0817C68.0351 39.5568 68.645 38.4505 68.2762 37.6704C67.9075 36.8903 67.794 37.6562 67.8082 37.3583L69.5103 37.3583L69.5386 37.3583Z" fill="white"/>
<path d="M95.0698 37.5002L95.0698 38.0675C94.389 37.5427 93.7507 37.4009 92.9422 37.7271C92.1337 38.0533 92.6018 37.7129 92.6585 38.0108C92.8004 38.8902 95.3819 38.1526 95.3677 39.4292C95.3535 40.7057 93.0131 40.337 92.233 40.2093L92.233 39.6419C92.6727 40.266 94.9422 40.4362 94.928 39.571C94.9138 38.7058 92.3323 39.3157 92.2188 38.2945C92.0912 37.0888 94.3039 37.4009 95.0557 37.5285L95.0698 37.5002Z" fill="white"/>
<path d="M82.4461 31.6847L82.1624 32.0393L83.2262 33.245L84.1481 31.8975L83.8645 31.6847L84.9992 31.6847C85.0134 31.9258 84.6871 31.8124 84.4886 31.9542C84.29 32.096 83.3538 33.3868 83.3255 33.4861C83.2687 33.6988 83.2404 34.2236 83.3538 34.3939C83.4673 34.5641 83.8928 34.3939 83.8645 34.6634L82.1624 34.6634C82.134 34.3939 82.5312 34.5782 82.673 34.3939C83.0985 33.8123 82.1198 32.8478 81.8078 32.3939L80.8858 31.6847L82.4461 31.6847Z" fill="white"/>
<path d="M80.0348 31.6847L80.0348 32.3939C79.7937 32.3655 79.8646 32.0677 79.5809 31.9258C79.2972 31.784 78.9284 31.8266 78.6164 31.8266L78.6164 34.3088C78.6164 34.5357 79.3398 34.4364 79.1128 34.6634L77.4817 34.6634C77.4391 34.408 78.049 34.5357 78.049 34.3088L78.049 31.8266C77.737 31.8266 77.3824 31.784 77.0845 31.9258C76.7867 32.0677 76.8718 32.3655 76.6306 32.3939L76.6306 31.6847L80.0348 31.6847Z" fill="white"/>
<path d="M76.7725 37.3583L76.7725 38.0675C76.5313 38.0392 76.6023 37.7413 76.3186 37.5994C76.0349 37.4576 75.6661 37.5002 75.3541 37.5002L75.3541 39.9824C75.3541 40.2093 76.0774 40.11 75.8505 40.337L74.2193 40.337C74.1768 40.0817 74.7867 40.2093 74.7867 39.9824L74.7867 37.5002C74.4747 37.5002 74.1201 37.4576 73.8222 37.5994C73.5243 37.7413 73.6094 38.0392 73.3683 38.0675L73.3683 37.3583L76.7725 37.3583Z" fill="white"/>
<path d="M63.7231 40.337L64.1487 39.8405C64.0636 39.3866 64.2905 37.8973 64.0777 37.6278C63.865 37.3583 63.5387 37.6278 63.5671 37.3583L65.1983 37.3583L64.716 37.7271L64.716 40.0249C65.2976 40.2519 66.1202 40.3228 66.6167 39.9114C67.1131 39.5001 66.7443 39.4717 66.9571 39.4859L66.6025 40.337L63.6948 40.337L63.7231 40.337Z" fill="white"/>
<path d="M78.6164 37.7129C78.5313 37.4576 77.893 37.5994 78.1199 37.3583L79.7511 37.3583C79.7936 37.6136 79.1837 37.486 79.1837 37.7129L79.1837 39.9824C79.1837 40.2093 79.9071 40.11 79.6802 40.337L78.049 40.337C78.0064 40.0817 78.6164 40.2093 78.6164 39.9824L78.6164 37.7129Z" fill="white"/>
</svg>
